<svg width="250" height="24" viewBox="0 0 250 24" fill="none" xmlns="http://www.w3.org/2000/svg">
<path d="M0 0.362137H13.5233V5.23052H5.229V9.2875H12.6217V14.1559H5.229V18.303H13.8839V23.1714H0V0.362137Z" fill="#004259"/>
<path d="M46.6094 11.6315L54.1824 23.2615H48.0519L43.1835 15.5984L38.3151 23.2615H32.1846L39.7576 11.6315L32.5452 0.452292H38.6757L43.2737 7.84502L47.7814 0.362137H53.912L46.6094 11.6315Z" fill="#004259"/>
<path d="M73.4766 23.2622V0.362784C74.7387 0.362784 78.7056 0.272629 80.5087 0.272629C87.4506 0.272629 89.7946 3.87883 89.7946 7.84566C89.7946 11.9026 86.6392 15.5089 81.3201 15.5089C80.8693 15.5089 79.6071 15.5089 78.7957 15.4187V23.172H73.4766V23.2622ZM78.7056 5.32132V10.5503C79.4268 10.6405 80.3284 10.7306 81.0496 10.7306C82.4019 10.7306 84.1149 10.0995 84.1149 7.93582C84.1149 5.9524 82.7625 5.32132 80.9594 5.32132C80.3284 5.23116 79.7874 5.23116 78.7056 5.32132Z" fill="#004259"/>
<path d="M120.447 0C127.389 0 132.618 4.50776 132.618 11.8103C132.618 18.7523 127.389 23.6207 120.447 23.6207C113.505 23.6207 108.276 19.1129 108.276 11.8103C108.276 5.229 113.145 0 120.447 0ZM120.447 18.7523C124.775 18.7523 127.029 15.687 127.029 11.8103C127.029 7.66319 124.144 4.86838 120.447 4.86838C116.661 4.86838 113.866 7.57304 113.866 11.8103C113.866 15.7772 116.841 18.7523 120.447 18.7523Z" fill="#004259"/>
<path d="M171.024 21.0062C169.672 22.5388 166.697 23.6207 163.541 23.6207C156.419 23.6207 151.551 18.9326 151.551 11.8103C151.551 5.229 155.608 0 163.541 0C166.607 0 169.131 1.08186 170.574 2.34403L168.229 6.31086C166.967 5.58962 165.705 4.86838 163.541 4.86838C160.025 4.86838 157.14 7.30257 157.14 11.8103C157.14 15.8673 159.935 18.7523 164.082 18.7523C165.705 18.7523 167.508 18.2113 169.041 17.1295L171.024 21.0062Z" fill="#004259"/>
<path d="M197.529 0.362137H202.217L211.683 23.2615H206.094L204.2 18.4833H195.185L193.291 23.2615H188.062L197.529 0.362137ZM197.168 13.5248H202.307L199.783 7.03362L197.168 13.5248Z" fill="#004259"/>
<path d="M230.978 23.2622V0.362784C232.24 0.362784 238.1 0.272629 238.731 0.272629C244.952 0.272629 247.205 3.3379 247.205 7.5752C247.205 11.8125 244.591 13.5254 243.329 14.1565L250 23.172H243.689L238.1 15.1482H236.207V23.172H230.978V23.2622ZM236.207 5.32132V10.37H238.1C240.083 10.37 241.706 9.64877 241.706 7.75551C241.706 6.49333 241.075 5.23116 238.551 5.23116C237.739 5.23116 237.288 5.23116 236.207 5.32132Z" fill="#004259"/>
</svg>
